<?xml version="1.0" encoding="UTF-8"?>
<svg id="Ebene_2" data-name="Ebene 2" xmlns="http://www.w3.org/2000/svg" xmlns:xlink="http://www.w3.org/1999/xlink" viewBox="0 0 94.14 130.57">
  <defs>
    <style>
      .cls-1 {
        fill: #242048;
      }

      .cls-2 {
        fill: url(#Unbenannter_Verlauf_5);
      }
    </style>
    <linearGradient id="Unbenannter_Verlauf_5" data-name="Unbenannter Verlauf 5" x1="9.25" y1="80.48" x2="83.87" y2="5.85" gradientUnits="userSpaceOnUse">
      <stop offset="0" stop-color="#a82585"/>
      <stop offset=".33" stop-color="#683c8f"/>
      <stop offset=".58" stop-color="#1f3d8c"/>
      <stop offset=".88" stop-color="#36ade4"/>
    </linearGradient>
  </defs>
  <g id="Ebene_1-2" data-name="Ebene 1">
    <g>
      <path class="cls-1" d="m3.03,128.3c0,.42-.15.78-.44,1.07-.29.29-.65.44-1.07.44s-.78-.15-1.07-.44-.44-.65-.44-1.07v-24.55c0-.42.15-.78.44-1.07s.65-.44,1.07-.44.78.15,1.07.44c.29.29.44.65.44,1.07v24.55Z"/>
      <path class="cls-1" d="m34.19,128.3c0,.42-.15.78-.44,1.07s-.65.44-1.07.44-.78-.15-1.07-.44c-.29-.29-.44-.65-.44-1.07v-12.48c0-2.83-1-5.25-3.01-7.27-2.01-2.02-4.44-3.03-7.31-3.03s-5.26,1.01-7.26,3.03c-2.01,2.02-3.01,4.45-3.01,7.28v12.46c0,.42-.15.78-.44,1.07-.29.29-.65.44-1.07.44s-.78-.14-1.07-.42c-.29-.28-.44-.63-.44-1.05v-12.52c0-3.68,1.3-6.83,3.91-9.45,2.61-2.61,5.75-3.92,9.42-3.92s6.81,1.3,9.42,3.92c2.61,2.61,3.91,5.75,3.91,9.43v12.51Z"/>
      <path class="cls-1" d="m66.57,116.38c0,3.68-1.45,6.96-4.34,9.85-2.89,2.89-6.18,4.34-9.85,4.34s-6.96-1.45-9.85-4.34c-2.89-2.89-4.34-6.17-4.34-9.85s1.45-6.96,4.34-9.85c2.89-2.89,6.17-4.34,9.85-4.34s6.96,1.45,9.85,4.34c2.89,2.89,4.34,6.18,4.34,9.85Zm-3.03.02c0-2.86-1.15-5.43-3.45-7.71-2.3-2.28-4.87-3.42-7.7-3.42s-5.4,1.14-7.71,3.42c-2.3,2.28-3.45,4.85-3.45,7.71s1.15,5.39,3.45,7.67c2.3,2.28,4.87,3.42,7.71,3.42s5.4-1.14,7.7-3.42c2.3-2.28,3.45-4.84,3.45-7.67Z"/>
      <path class="cls-1" d="m93.99,127.66l-11.83-24.39s-.02-.03-.03-.05c-.03-.05-.05-.09-.09-.14-.03-.04-.05-.08-.08-.11-.03-.04-.07-.07-.1-.11-.04-.04-.07-.07-.11-.1-.03-.03-.07-.05-.11-.08-.05-.03-.09-.06-.14-.09-.02,0-.03-.02-.04-.03-.02-.01-.05-.02-.08-.03-.05-.02-.1-.04-.15-.06-.05-.01-.09-.02-.14-.03-.05,0-.1-.02-.15-.02-.05,0-.1,0-.15,0-.05,0-.1,0-.15,0-.05,0-.1.01-.15.02-.05,0-.09.02-.13.03-.05.02-.11.04-.16.06-.02.01-.05.02-.07.03-.02,0-.03.02-.04.03-.05.03-.1.06-.15.09-.04.02-.07.05-.11.08-.04.03-.08.07-.11.11-.03.03-.07.07-.1.1-.03.04-.06.08-.08.11-.03.04-.06.09-.08.14,0,.02-.02.03-.03.05l-11.83,24.39c-.36.75-.05,1.66.7,2.02.07.03.13.05.2.07.15.05.3.08.46.08.56,0,1.1-.31,1.36-.85l.89-1.84,2.19-4.5c.21-.25.44-.5.69-.74,2-1.99,4.24-2.98,6.71-2.98s4.7.99,6.71,2.98c.24.24.47.49.69.74l2.19,4.51.89,1.84c.26.54.8.85,1.36.85.15,0,.31-.03.46-.08.07-.02.13-.04.2-.07.75-.36,1.07-1.27.7-2.02Zm-13.19-11.42c-1.7,0-3.31.37-4.82,1.08l4.82-9.93,4.82,9.93c-1.51-.71-3.11-1.08-4.81-1.08Z"/>
    </g>
    <path class="cls-2" d="m77.08,42.72l.71-2.13,12.16-36.31c.82-2.44-1.51-4.77-3.95-3.95l-34.92,11.69-3.42,1.14h-.03s-.32.12-.32.12l-.37-.13-.07-.02L8.16.17c-2.44-.82-4.77,1.51-3.95,3.95l12.96,38.71-12.98,38.75c-.82,2.44,1.51,4.77,3.95,3.95l38.7-12.95,38.73,12.97c2.44.82,4.77-1.51,3.95-3.95l-12.65-37.78-.09-.27.21-.59.08-.23ZM14.45,14.33c-.81-2.42,1.5-4.73,3.92-3.92l18.15,6.08c-.25.1-.5.2-.75.31-.59.25-1.17.53-1.74.82-.28.14-.55.29-.82.45-.31.18-.62.37-.93.56-.18.11-.37.21-.55.33-.07.05-.14.08-.22.13-.22.14-.42.3-.64.45-.52.36-1.03.75-1.54,1.14-.04.03-.09.06-.13.1-.02.01-.03.03-.04.04-.74.59-1.47,1.21-2.15,1.9-.26.26-.48.55-.73.82-.03.04-.07.08-.1.11-.17.18-.34.36-.5.55-.22.25-.44.49-.65.75-.03.03-.05.07-.08.1-.02.03-.05.06-.07.08-.25.31-.48.64-.71.96-.24.33-.47.67-.7,1-.05.08-.11.15-.16.23-.08.12-.18.24-.25.37-.16.26-.32.52-.47.78-.4.68-.77,1.37-1.11,2.07-.07.15-.14.3-.21.45-.25.54-.48,1.07-.69,1.62,0,0,0,0,0,0,0,0,0,0,0,0l-6.12-18.27Zm3.91,60.96c-2.42.81-4.73-1.5-3.92-3.92l6.12-18.29c.18.46.36.91.57,1.36.15.33.31.66.47.99.3.6.62,1.2.97,1.78.16.26.31.53.47.79.43.68.9,1.35,1.4,2,.12.15.22.31.34.46.65.81,1.34,1.61,2.09,2.36,2.87,2.87,6.22,4.97,9.79,6.34l-18.3,6.13Zm24.79-49.1c0-4.81,1.62-9.24,4.33-12.78,0-.03,0-.05,0-.05h.02s.46.17.46.17l3.18,1.06,3.88,1.3c.17.05.34.11.52.16.1.03.21.07.31.1.2.06.39.15.58.21-.04.05-.07.1-.11.14-3.93,4.88-3.65,12.05.88,16.58,3.03,3.03,7.25,4.15,11.17,3.38,1.98-.39,3.88-1.24,5.52-2.59l2.01,6.84.74,2.5v.02s-.03.01-.04.02c-3.48,2.52-7.75,4.02-12.37,4.02-11.64,0-21.08-9.44-21.08-21.08Zm36.13,45.19c.81,2.42-1.5,4.73-3.92,3.92l-18.32-6.13h0c.24-.09.47-.19.71-.29.03-.01.06-.02.09-.04.33-.14.64-.31.96-.46.18-.08.37-.17.55-.26.14-.07.29-.14.43-.21.11-.06.23-.1.35-.17.07-.04.13-.07.2-.11,2.34-1.27,4.56-2.85,6.54-4.82.4-.4.74-.84,1.12-1.26.05-.06.11-.12.16-.18.1-.11.2-.22.3-.33.1-.12.22-.24.32-.37.03-.04.06-.08.08-.11.02-.03.05-.05.07-.08.16-.19.29-.4.44-.59.03-.04.05-.07.08-.11.16-.23.34-.45.5-.67.16-.22.32-.45.47-.68.02-.02.03-.05.05-.07.09-.14.2-.27.28-.41.23-.36.44-.73.65-1.09.1-.18.19-.36.29-.54.05-.1.1-.19.16-.29.16-.3.34-.6.49-.91.12-.24.23-.48.34-.72.19-.41.35-.81.52-1.23l6.09,18.19Zm-5.6-38.9c-.15-.38-.3-.75-.46-1.12-.19-.42-.39-.84-.59-1.25-.25-.49-.51-.97-.79-1.45-.21-.37-.43-.74-.66-1.1-.33-.52-.7-1.02-1.07-1.52-.23-.31-.44-.62-.68-.92-.53-.66-1.1-1.29-1.7-1.91-.11-.12-.21-.24-.32-.36-.05-.05-.12-.1-.17-.15-.65-.64-1.32-1.23-2.02-1.79-.14-.11-.28-.23-.42-.34-.75-.58-1.52-1.11-2.31-1.61-.12-.07-.23-.15-.35-.22-.85-.52-1.72-.98-2.61-1.4-.02,0-.04-.02-.06-.03-.56-.26-1.12-.5-1.7-.72l10.38-3.48,7.61-2.55c2.42-.81,4.73,1.5,3.92,3.92l-2.34,6.99-3.68,11.01Z"/>
  </g>
</svg>